<svg width="25" height="25" viewBox="0 0 25 25" fill="none" xmlns="http://www.w3.org/2000/svg">
  <path d="M22.8114 17.0505L22.5806 4.9827C22.5577 3.78292 21.5608 2.91182 20.373 3.03456L20.313 3.0357C18.2168 3.25583 15.0479 4.38663 13.2896 5.54046L13.1217 5.65369C12.8352 5.8392 12.3553 5.84838 12.0619 5.67396L11.8091 5.52877C10.0082 4.45301 6.80852 3.45401 4.70565 3.3242C3.51395 3.24697 2.56134 4.16535 2.5841 5.35514L2.81509 17.4329C2.83344 18.3928 3.63051 19.2777 4.59263 19.3793L4.88334 19.4137C7.05849 19.6622 10.4289 20.6979 12.3686 21.711L12.409 21.7303C12.6818 21.8751 13.1118 21.8668 13.3688 21.7119C15.2682 20.6154 18.6064 19.4413 20.7804 19.1097L21.1096 19.0634C22.0671 18.9251 22.8298 18.0103 22.8114 17.0505Z" stroke="currentColor" stroke-width="1.5" stroke-linecap="round" stroke-linejoin="round" />
  <path d="M12.5981 5.99377L12.885 20.991" stroke="currentColor" stroke-width="1.5" stroke-linecap="round" stroke-linejoin="round" />
  <path d="M8.40633 9.07453L6.15674 9.11755" stroke="currentColor" stroke-width="1.5" stroke-linecap="round" stroke-linejoin="round" />
  <path d="M9.21356 12.0596L6.21411 12.1169" stroke="currentColor" stroke-width="1.5" stroke-linecap="round" stroke-linejoin="round" />
</svg> 