<svg width="25" height="25" viewBox="0 0 25 25" fill="none" xmlns="http://www.w3.org/2000/svg">
  <path d="M12.6492 8.40125L11.515 10.2228C11.2608 10.6242 11.4488 10.9709 11.9186 10.9873L13.1878 11.0316C13.6675 11.0484 13.8455 11.3948 13.5913 11.7962L12.4671 13.6181" stroke="currentColor" stroke-width="1.5" stroke-linecap="round" stroke-linejoin="round" />
  <path d="M8.59724 18.416L8.63773 17.2567C6.38764 15.7873 4.59337 13.013 4.69388 10.1347C4.86663 5.18776 9.54927 1.46891 14.6471 2.76761C16.8882 3.34618 18.8147 4.91437 19.7718 7.01905C21.7139 11.2894 19.3596 15.6699 16.0635 17.506L16.0231 18.6653C16.0129 18.9551 16.0995 19.6286 15.0301 19.5912L9.5235 19.3989C8.42383 19.3705 8.57875 18.9457 8.59724 18.416Z" stroke="currentColor" stroke-width="1.5" stroke-linecap="round" stroke-linejoin="round" />
  <path d="M8.65901 22.3805C10.9703 21.8108 13.3888 21.8953 15.6547 22.6248" stroke="currentColor" stroke-width="1.5" stroke-linecap="round" stroke-linejoin="round" />
</svg> 