<svg width="27" height="27" viewBox="0 0 27 27" fill="none" xmlns="http://www.w3.org/2000/svg">
  <path d="M10.7099 4.33655L5.10413 8.83769C3.30693 10.2808 3.58334 13.0872 5.62755 14.152L12.0038 17.473C13.1482 18.0737 14.9196 17.8992 15.9248 17.0868L21.5007 12.5886C23.288 11.1465 23.0126 8.35 20.9783 7.28426L14.6319 3.96031C13.4866 3.34963 11.7151 3.52411 10.7099 4.33655Z" stroke="currentColor" stroke-width="1.5" stroke-linecap="round" stroke-linejoin="round" />
  <path d="M7.3454 15.269L7.79515 19.9374C7.91963 21.2013 9.02822 22.4587 10.2616 22.7391L13.5402 23.4813C14.1052 23.6065 15.0108 23.5174 15.5505 23.2833L18.6212 21.9158C19.7762 21.4001 20.6182 19.9506 20.4937 18.6867L20.0389 14.069" stroke="currentColor" stroke-width="1.5" stroke-linecap="round" stroke-linejoin="round" />
  <path d="M23.2278 15.634L22.6396 9.6629" stroke="currentColor" stroke-width="1.5" stroke-linecap="round" stroke-linejoin="round" />
</svg> 