<svg width="25" height="25" viewBox="0 0 25 25" fill="none" xmlns="http://www.w3.org/2000/svg">
  <path d="M18.6577 13.2252L18.6154 16.925C18.5798 20.0448 15.6411 22.5414 12.0513 22.5003C8.46152 22.4593 5.58062 19.8962 5.61628 16.7764L5.65857 13.0767C5.62291 16.1965 8.50724 18.4596 12.097 18.5006C15.6868 18.5416 18.6221 16.345 18.6577 13.2252Z" stroke="currentColor" stroke-width="1.5" stroke-linecap="round" stroke-linejoin="round" />
  <path d="M18.7149 8.22558C18.7045 9.13552 18.4449 9.9726 17.9967 10.6875C16.9066 12.4352 14.694 13.53 12.1541 13.5009C9.6143 13.4719 7.42724 12.3268 6.37743 10.5547C5.94569 9.82974 5.7053 8.98694 5.7157 8.077C5.73353 6.5171 6.47959 5.11554 7.66117 4.10897C8.85287 3.09253 10.48 2.48108 12.2798 2.50166C14.0797 2.52223 15.6924 3.1707 16.8607 4.20412C18.0188 5.24743 18.7327 6.66568 18.7149 8.22558Z" stroke="currentColor" stroke-width="1.5" stroke-linecap="round" stroke-linejoin="round" />
  <path d="M18.7149 8.22558L18.6577 13.2252C18.622 16.345 15.6868 18.5416 12.097 18.5006C8.50722 18.4596 5.6229 16.1965 5.65856 13.0767L5.7157 8.077C5.75136 4.9572 8.69008 2.46063 12.2798 2.50166C14.0797 2.52223 15.6924 3.1707 16.8607 4.20412C18.0188 5.24743 18.7327 6.66568 18.7149 8.22558Z" stroke="currentColor" stroke-width="1.5" stroke-linecap="round" stroke-linejoin="round" />
</svg>