<svg width="24" height="25" viewBox="0 0 24 25" fill="none" xmlns="http://www.w3.org/2000/svg">
  <path d="M5.46005 18.99V16.07C5.46005 15.1 6.22005 14.23 7.30005 14.23C8.27005 14.23 9.14005 14.99 9.14005 16.07V18.88C9.14005 20.83 7.52005 22.45 5.57005 22.45C3.62005 22.45 2.00005 20.82 2.00005 18.88V12.72C1.89005 7.09999 6.33005 2.54999 11.95 2.54999C17.57 2.54999 22 7.09999 22 12.61V18.77C22 20.72 20.38 22.34 18.43 22.34C16.48 22.34 14.86 20.72 14.86 18.77V15.96C14.86 14.99 15.62 14.12 16.7 14.12C17.67 14.12 18.54 14.88 18.54 15.96V18.99" stroke="currentColor" stroke-width="1.5" stroke-linecap="round" stroke-linejoin="round" />
</svg> 