<svg width="26" height="27" viewBox="0 0 26 27" fill="none" xmlns="http://www.w3.org/2000/svg">
  <path d="M8.92247 20.1851L12.1823 22.363C12.6093 22.7342 13.521 22.8709 14.1196 22.829L17.9103 22.564C19.1074 22.4803 20.3414 21.4918 20.557 20.2738L22.4419 12.8241C22.843 11.3927 21.8615 10.2584 20.3652 10.363L16.3749 10.642C15.7764 10.6839 15.2427 10.22 15.2937 9.51471L15.5692 6.28762C15.7059 5.37587 15.0377 4.42016 14.1189 4.18367C13.2999 3.9402 12.3303 4.40898 11.9731 5.03543L8.30861 11.4066" stroke="currentColor" stroke-width="1.5" stroke-miterlimit="10" />
  <path d="M3.83495 20.5409L3.15134 10.7648C3.05368 9.36817 3.61734 8.82753 5.01393 8.72987L6.01149 8.66012C7.40808 8.56246 8.0415 9.01938 8.13916 10.416L8.82277 20.1921C8.92043 21.5887 8.35677 22.1293 6.96018 22.227L5.96262 22.2967C4.56603 22.3944 3.93261 21.9375 3.83495 20.5409Z" stroke="currentColor" stroke-width="1.5" stroke-linecap="round" stroke-linejoin="round" />
</svg>