<svg width="100" height="24" viewBox="0 0 100 24" fill="none" xmlns="http://www.w3.org/2000/svg">
  <g clip-path="url(#clip0_226_3291)">
    <path d="M47.4756 0.230769L37.1235 0.271154L40.6589 12.5884L42.0369 12.5827L42.0143 7.9096L47.3852 7.88074L47.3682 4.77692L41.9974 4.80577L41.9917 3.36346L47.4869 3.34038L47.4756 0.230769Z" fill="#6B853D" />
    <path d="M59.7308 4.39038C59.7308 2.08268 58.1947 0.161538 55.3709 0.178846H48.9326L48.9891 12.5019H52.6431V8.54997H53.9646L55.6589 12.4961H59.8156L57.6073 8.14615C58.2823 7.80338 58.8451 7.26745 59.2272 6.60363C59.6092 5.93986 59.7941 5.17688 59.7591 4.40769L59.7308 4.39038ZM54.823 5.46345H52.5979V3.29998H54.823C54.9733 3.28052 55.126 3.29398 55.2708 3.33944C55.4156 3.3849 55.5494 3.46135 55.663 3.56367C55.7766 3.666 55.8677 3.79186 55.9301 3.93291C55.9924 4.07396 56.0247 4.22695 56.0247 4.38172C56.0247 4.53648 55.9924 4.68948 55.9301 4.83054C55.8677 4.97158 55.7766 5.09745 55.663 5.19977C55.5494 5.3021 55.4156 5.37855 55.2708 5.42401C55.126 5.46947 54.9733 5.4829 54.823 5.46345Z" fill="#6B853D" />
    <path d="M64.4913 0.149997L60.0977 12.4961H64.051L64.5142 10.9039H69.1449L69.6196 12.4904H73.5727L69.0546 0.184611H64.4576L64.4913 0.149997ZM65.4178 7.81151L66.7733 3.46154L68.1678 7.8L65.4178 7.81151Z" fill="#6B853D" />
    <path d="M83.3605 0.0576919L81.2707 6.35194L79.1249 0.0749996L74.0815 0.0980766L74.1382 12.427L77.7918 12.4096L77.7581 4.62692L80.4858 12.3923L82.1183 12.3865L84.7725 4.59231L84.8117 12.375L88.4659 12.3577L88.4038 0.0288458L83.3605 0.0576919Z" fill="#6B853D" />
    <path d="M94.0113 9.22498L94.0059 7.65575L98.5294 7.63846L97.6372 4.54038L93.989 4.55192L93.983 3.10961L97.2251 3.09807L96.3384 0L90.3125 0.0230769L90.3745 12.3462L99.8679 12.3116L98.9757 9.20769L94.0113 9.22498Z" fill="#6B853D" />
    <path d="M3.25301 3.69231L0.0169428 3.70961L0 0.455768L10.1148 0.409615L10.1261 3.65769L6.90699 3.675L6.95217 12.75L3.29819 12.7673L3.25301 3.69231Z" fill="#2E587C" />
    <path d="M16.9821 0.173077C20.7039 0.173077 23.5954 2.72308 23.6124 6.51926C23.6293 10.3154 20.7886 12.9058 17.0386 12.9289C13.2886 12.9519 10.4252 10.373 10.4083 6.58271C10.3914 2.7923 13.2321 0.196159 16.9821 0.178851V0.173077ZM16.9821 3.4673C16.3795 3.44428 15.7839 3.60599 15.272 3.93162C14.7601 4.25725 14.3553 4.73191 14.1097 5.29452C13.8641 5.85713 13.7889 6.48191 13.8938 7.08855C13.9986 7.6952 14.2788 8.25588 14.6983 8.69846C15.1177 9.14111 15.6572 9.44535 16.2473 9.57212C16.8374 9.69895 17.4512 9.64246 18.0096 9.40991C18.568 9.17742 19.0456 8.77951 19.3808 8.26745C19.716 7.75538 19.8936 7.15255 19.8906 6.53655C19.9117 6.13586 19.8516 5.73507 19.7142 5.35917C19.5768 4.98327 19.365 4.64033 19.0921 4.35177C18.8192 4.06322 18.4909 3.83524 18.1279 3.68207C17.7648 3.52889 17.3748 3.45383 16.9821 3.46154V3.4673Z" fill="#2E587C" />
    <path d="M24.7987 0.351921L31.2369 0.323082C34.0607 0.323082 35.5856 2.22115 35.5969 4.53461C35.6082 6.84806 34.1002 8.67692 31.2764 8.69421H28.4922V12.6462H24.8382L24.7817 0.323082L24.7987 0.351921ZM30.7625 3.39807H28.447V5.56154H30.7625C30.9081 5.57241 31.0543 5.5525 31.192 5.50306C31.3297 5.45363 31.4559 5.37571 31.5628 5.2742C31.6697 5.17269 31.755 5.04976 31.8132 4.91308C31.8716 4.7764 31.9017 4.6289 31.9017 4.4798C31.9017 4.33071 31.8716 4.18321 31.8132 4.04653C31.755 3.90985 31.6697 3.78692 31.5628 3.68541C31.4559 3.5839 31.3297 3.506 31.192 3.45657C31.0543 3.40713 30.9081 3.38721 30.7625 3.39807Z" fill="#2E587C" />
    <path d="M30.2645 22.1538H29.7674V19.2782H28.7879C28.7487 19.7971 28.6987 20.2418 28.6379 20.6124C28.5791 20.981 28.5045 21.2825 28.4143 21.5168C28.3261 21.7492 28.2182 21.9205 28.0908 22.0306C27.9653 22.1388 27.8153 22.1929 27.6407 22.1929C27.5878 22.1929 27.5378 22.1899 27.4907 22.1839C27.4437 22.1779 27.4035 22.1679 27.3701 22.1538V21.7752C27.3956 21.7833 27.4221 21.7893 27.4495 21.7933C27.479 21.7973 27.5093 21.7993 27.5407 21.7993C27.629 21.7993 27.7094 21.7622 27.7819 21.6881C27.8564 21.612 27.9231 21.4978 27.9819 21.3456C28.0427 21.1933 28.0967 21.001 28.1437 20.7686C28.1908 20.5343 28.232 20.2588 28.2673 19.9423C28.3045 19.6238 28.3369 19.2632 28.3643 18.8606H30.2645V22.1538Z" fill="#242424" />
    <path d="M25.7055 18.8065C26.0898 18.8065 26.3752 18.8946 26.5614 19.0709C26.7477 19.2472 26.8409 19.5286 26.8409 19.9153V22.1538H26.485L26.3908 21.6671H26.3673C26.2771 21.7873 26.183 21.8884 26.0849 21.9706C25.9869 22.0507 25.8731 22.1118 25.7437 22.1538C25.6163 22.1939 25.4594 22.2139 25.2731 22.2139C25.077 22.2139 24.9025 22.1789 24.7495 22.1088C24.5985 22.0387 24.4789 21.9325 24.3907 21.7903C24.3044 21.648 24.2612 21.4677 24.2612 21.2494C24.2612 20.9209 24.3887 20.6685 24.6436 20.4922C24.8985 20.3159 25.2868 20.2197 25.8084 20.2037L26.3644 20.1797V19.9784C26.3644 19.6939 26.3046 19.4946 26.1849 19.3804C26.0653 19.2662 25.8967 19.2091 25.679 19.2091C25.5104 19.2091 25.3496 19.2342 25.1966 19.2843C25.0437 19.3343 24.8985 19.3934 24.7613 19.4615L24.6113 19.0829C24.7564 19.0068 24.9231 18.9417 25.1113 18.8876C25.2996 18.8335 25.4976 18.8065 25.7055 18.8065ZM26.3585 20.5312L25.8673 20.5523C25.4653 20.5683 25.1819 20.6354 25.0172 20.7536C24.8525 20.8718 24.7701 21.0391 24.7701 21.2554C24.7701 21.4437 24.826 21.5829 24.9378 21.6731C25.0495 21.7632 25.1976 21.8083 25.3819 21.8083C25.6682 21.8083 25.9026 21.7272 26.0849 21.5649C26.2673 21.4026 26.3585 21.1593 26.3585 20.8347V20.5312Z" fill="#242424" />
    <path d="M23.861 19.2843H22.7991V22.1538H22.3167V19.2843H21.2695V18.8606H23.861V19.2843Z" fill="#242424" />
    <path d="M19.4899 18.8005C19.8919 18.8005 20.2126 18.9417 20.4518 19.2242C20.691 19.5066 20.8107 19.9313 20.8107 20.4982C20.8107 20.8728 20.7558 21.1873 20.6459 21.4417C20.5361 21.6961 20.3812 21.8884 20.1812 22.0186C19.9831 22.1488 19.7488 22.2139 19.4782 22.2139C19.3076 22.2139 19.1576 22.1909 19.0281 22.1448C18.8987 22.0988 18.7879 22.0367 18.6958 21.9585C18.6036 21.8804 18.5271 21.7953 18.4663 21.7031H18.431C18.4369 21.7812 18.4438 21.8754 18.4516 21.9856C18.4614 22.0958 18.4663 22.1919 18.4663 22.274V23.6262H17.9751V18.8606H18.3781L18.4428 19.3474H18.4663C18.5291 19.2472 18.6055 19.156 18.6958 19.0739C18.786 18.9898 18.8958 18.9237 19.0252 18.8756C19.1566 18.8255 19.3115 18.8005 19.4899 18.8005ZM19.4046 19.2212C19.1811 19.2212 19.0007 19.2652 18.8634 19.3534C18.7281 19.4415 18.6291 19.5737 18.5663 19.75C18.5036 19.9243 18.4702 20.1436 18.4663 20.4081V20.5042C18.4663 20.7827 18.4957 21.018 18.5546 21.2103C18.6154 21.4026 18.7144 21.5489 18.8517 21.649C18.9909 21.7492 19.1772 21.7993 19.4105 21.7993C19.6105 21.7993 19.7772 21.7442 19.9106 21.634C20.0439 21.5238 20.1429 21.3706 20.2077 21.1743C20.2743 20.976 20.3077 20.7486 20.3077 20.4922C20.3077 20.1036 20.2332 19.7951 20.0841 19.5667C19.937 19.3363 19.7106 19.2212 19.4046 19.2212Z" fill="#242424" />
    <path d="M17.131 20.5012C17.131 20.7716 17.0967 21.013 17.028 21.2254C16.9594 21.4377 16.8604 21.617 16.7309 21.7632C16.6015 21.9095 16.4446 22.0216 16.2603 22.0998C16.0779 22.1759 15.8711 22.2139 15.6397 22.2139C15.424 22.2139 15.2259 22.1759 15.0455 22.0998C14.867 22.0216 14.7121 21.9095 14.5807 21.7632C14.4513 21.617 14.3503 21.4377 14.2778 21.2254C14.2072 21.013 14.1719 20.7716 14.1719 20.5012C14.1719 20.1406 14.2317 19.8341 14.3513 19.5817C14.4709 19.3273 14.6415 19.134 14.8631 19.0018C15.0867 18.8676 15.3524 18.8005 15.6603 18.8005C15.9544 18.8005 16.2113 18.8676 16.4309 19.0018C16.6525 19.136 16.8241 19.3303 16.9457 19.5847C17.0692 19.8371 17.131 20.1426 17.131 20.5012ZM14.6778 20.5012C14.6778 20.7656 14.7121 20.995 14.7808 21.1893C14.8494 21.3836 14.9553 21.5339 15.0984 21.64C15.2416 21.7462 15.4259 21.7993 15.6514 21.7993C15.875 21.7993 16.0583 21.7462 16.2015 21.64C16.3466 21.5339 16.4535 21.3836 16.5221 21.1893C16.5907 20.995 16.625 20.7656 16.625 20.5012C16.625 20.2388 16.5907 20.0124 16.5221 19.8221C16.4535 19.6298 16.3476 19.4816 16.2044 19.3774C16.0613 19.2732 15.876 19.2212 15.6485 19.2212C15.3132 19.2212 15.0671 19.3343 14.9102 19.5607C14.7553 19.7871 14.6778 20.1006 14.6778 20.5012Z" fill="#242424" />
    <path d="M13.316 18.8606V22.1538H12.8248V19.2903H11.1069V22.1538H10.6157V18.8606H13.316Z" fill="#242424" />
    <path d="M8.40088 20.7236V20.2788H9.85984V20.7236H8.40088Z" fill="#242424" />
    <path d="M6.19166 17.7608C6.54463 17.7608 6.83584 17.8059 7.06527 17.896C7.29666 17.9842 7.46923 18.1194 7.58297 18.3017C7.6967 18.484 7.75357 18.7163 7.75357 18.9988C7.75357 19.2312 7.71239 19.4255 7.63003 19.5817C7.54767 19.736 7.43982 19.8612 7.30647 19.9573C7.17312 20.0535 7.03095 20.1276 6.87996 20.1797L8.05948 22.1538H7.47707L6.42403 20.3209H5.52983V22.1538H5.02979V17.7608H6.19166ZM6.16224 18.2025H5.52983V19.8882H6.21225C6.56326 19.8882 6.82113 19.8151 6.98585 19.6689C7.15253 19.5226 7.23587 19.3073 7.23587 19.0228C7.23587 18.7244 7.14763 18.513 6.97114 18.3888C6.79662 18.2646 6.52698 18.2025 6.16224 18.2025Z" fill="#242424" />
    <path d="M3.84751 22.1538H3.34746V20.0835H1.08843V22.1538H0.588379V17.7608H1.08843V19.6328H3.34746V17.7608H3.84751V22.1538Z" fill="#242424" />
  </g>
  <defs>
    <clipPath id="clip0_226_3291">
      <rect width="100" height="24" fill="white" />
    </clipPath>
  </defs>
</svg>