<svg width="103" height="24" viewBox="0 0 103 24" fill="none" xmlns="http://www.w3.org/2000/svg">
  <g clip-path="url(#clip0_3_34)">
    <path d="M48.4981 0.230769L37.9231 0.271154L41.5346 12.5884L42.9423 12.5827L42.9192 7.9096L48.4058 7.88074L48.3885 4.77692L42.9019 4.80577L42.8961 3.36346L48.5096 3.34038L48.4981 0.230769Z" fill="#FDFDFD" />
    <path d="M61.0173 4.39038C61.0173 2.08268 59.4481 0.161538 56.5635 0.178846H49.9866L50.0443 12.5019H53.777V8.54997H55.1269L56.8577 12.4961H61.1039L58.8481 8.14615C59.5376 7.80338 60.1126 7.26745 60.5029 6.60363C60.8932 5.93986 61.082 5.17688 61.0462 4.40769L61.0173 4.39038ZM56.0039 5.46345H53.7308V3.29998H56.0039C56.1574 3.28052 56.3133 3.29398 56.4613 3.33944C56.6092 3.3849 56.7458 3.46135 56.8619 3.56367C56.978 3.666 57.0711 3.79186 57.1348 3.93291C57.1984 4.07396 57.2314 4.22695 57.2314 4.38172C57.2314 4.53648 57.1984 4.68948 57.1348 4.83054C57.0711 4.97158 56.978 5.09745 56.8619 5.19977C56.7458 5.3021 56.6092 5.37855 56.4613 5.42401C56.3133 5.46947 56.1574 5.4829 56.0039 5.46345Z" fill="#FDFDFD" />
    <path d="M65.8806 0.149997L61.3923 12.4961H65.4308L65.904 10.9039H70.6345L71.1194 12.4904H75.1576L70.5422 0.184611H65.8462L65.8806 0.149997ZM66.8271 7.81151L68.2117 3.46154L69.6363 7.8L66.8271 7.81151Z" fill="#FDFDFD" />
    <path d="M85.1557 0.0576919L83.0209 6.35194L80.8289 0.0749996L75.6769 0.0980766L75.7347 12.427L79.467 12.4096L79.4326 4.62692L82.219 12.3923L83.8867 12.3865L86.5981 4.59231L86.6381 12.375L90.371 12.3577L90.3077 0.0288458L85.1557 0.0576919Z" fill="#FDFDFD" />
    <path d="M96.0363 9.22498L96.0307 7.65575L100.652 7.63846L99.7403 4.54038L96.0135 4.55192L96.0073 3.10961L99.3193 3.09807L98.4135 0L92.2578 0.0230769L92.3212 12.3462L102.019 12.3116L101.108 9.20769L96.0363 9.22498Z" fill="#FDFDFD" />
    <path d="M3.32308 3.69231L0.0173077 3.70961L0 0.455768L10.3327 0.409615L10.3442 3.65769L7.05575 3.675L7.10191 12.75L3.36923 12.7673L3.32308 3.69231Z" fill="#FDFDFD" />
    <path d="M17.348 0.173077C21.15 0.173077 24.1038 2.72308 24.1211 6.51926C24.1384 10.3154 21.2365 12.9058 17.4058 12.9289C13.575 12.9519 10.6499 10.373 10.6326 6.58271C10.6154 2.7923 13.5173 0.196159 17.348 0.178851V0.173077ZM17.348 3.4673C16.7325 3.44428 16.1241 3.60599 15.6011 3.93162C15.0782 4.25725 14.6647 4.73191 14.4138 5.29452C14.1629 5.85713 14.0861 6.48191 14.1932 7.08855C14.3003 7.6952 14.5866 8.25588 15.015 8.69846C15.4435 9.14111 15.9946 9.44535 16.5974 9.57212C17.2003 9.69895 17.8272 9.64246 18.3977 9.40991C18.9682 9.17742 19.456 8.77951 19.7984 8.26745C20.1408 7.75538 20.3222 7.15255 20.3192 6.53655C20.3407 6.13586 20.2794 5.73507 20.139 5.35917C19.9987 4.98327 19.7823 4.64033 19.5035 4.35177C19.2247 4.06322 18.8894 3.83524 18.5186 3.68207C18.1477 3.52889 17.7492 3.45383 17.348 3.46154V3.4673Z" fill="#FDFDFD" />
    <path d="M25.3327 0.351921L31.9096 0.323082C34.7943 0.323082 36.352 2.22115 36.3635 4.53461C36.3751 6.84806 34.8346 8.67692 31.95 8.69421H29.1058V12.6462H25.3732L25.3154 0.323082L25.3327 0.351921ZM31.425 3.39807H29.0597V5.56154H31.425C31.5738 5.57241 31.7231 5.5525 31.8637 5.50306C32.0044 5.45363 32.1333 5.37571 32.2426 5.2742C32.3517 5.17269 32.4389 5.04976 32.4984 4.91308C32.5579 4.7764 32.5887 4.6289 32.5887 4.4798C32.5887 4.33071 32.5579 4.18321 32.4984 4.04653C32.4389 3.90985 32.3517 3.78692 32.2426 3.68541C32.1333 3.5839 32.0044 3.506 31.8637 3.45657C31.7231 3.40713 31.5738 3.38721 31.425 3.39807Z" fill="#FDFDFD" />
    <path d="M30.9164 22.1538H30.4086V19.2782H29.408C29.368 19.7971 29.3169 20.2418 29.2548 20.6124C29.1947 20.981 29.1186 21.2825 29.0264 21.5168C28.9363 21.7492 28.8261 21.9205 28.6959 22.0306C28.5677 22.1388 28.4144 22.1929 28.2362 22.1929C28.1821 22.1929 28.131 22.1899 28.0829 22.1839C28.0348 22.1779 27.9938 22.1679 27.9597 22.1538V21.7752C27.9858 21.7833 28.0128 21.7893 28.0408 21.7933C28.0709 21.7973 28.1019 21.7993 28.134 21.7993C28.2241 21.7993 28.3063 21.7622 28.3804 21.6881C28.4565 21.612 28.5246 21.4978 28.5847 21.3456C28.6468 21.1933 28.7019 21.001 28.75 20.7686C28.7981 20.5343 28.8401 20.2588 28.8762 19.9423C28.9142 19.6238 28.9473 19.2632 28.9753 18.8606H30.9164V22.1538Z" fill="#FDFDFD" />
    <path d="M26.2591 18.8065C26.6517 18.8065 26.9431 18.8946 27.1335 19.0709C27.3238 19.2472 27.4189 19.5286 27.4189 19.9153V22.1538H27.0553L26.9592 21.6671H26.9351C26.843 21.7873 26.7468 21.8884 26.6467 21.9706C26.5465 22.0507 26.4303 22.1118 26.2981 22.1538C26.1679 22.1939 26.0076 22.2139 25.8173 22.2139C25.617 22.2139 25.4387 22.1789 25.2825 22.1088C25.1282 22.0387 25.006 21.9325 24.9159 21.7903C24.8278 21.648 24.7837 21.4677 24.7837 21.2494C24.7837 20.9209 24.9139 20.6685 25.1743 20.4922C25.4347 20.3159 25.8314 20.2197 26.3642 20.2037L26.9321 20.1797V19.9784C26.9321 19.6939 26.871 19.4946 26.7488 19.3804C26.6266 19.2662 26.4544 19.2091 26.232 19.2091C26.0597 19.2091 25.8955 19.2342 25.7392 19.2843C25.583 19.3343 25.4347 19.3934 25.2945 19.4615L25.1413 19.0829C25.2895 19.0068 25.4598 18.9417 25.6521 18.8876C25.8444 18.8335 26.0467 18.8065 26.2591 18.8065ZM26.9261 20.5312L26.4243 20.5523C26.0137 20.5683 25.7242 20.6354 25.5559 20.7536C25.3877 20.8718 25.3035 21.0391 25.3035 21.2554C25.3035 21.4437 25.3606 21.5829 25.4748 21.6731C25.589 21.7632 25.7402 21.8083 25.9285 21.8083C26.221 21.8083 26.4604 21.7272 26.6467 21.5649C26.833 21.4026 26.9261 21.1593 26.9261 20.8347V20.5312Z" fill="#FDFDFD" />
    <path d="M24.375 19.2843H23.2903V22.1538H22.7975V19.2843H21.7278V18.8606H24.375V19.2843Z" fill="#FDFDFD" />
    <path d="M19.9099 18.8005C20.3206 18.8005 20.6481 18.9417 20.8925 19.2242C21.1369 19.5066 21.2591 19.9313 21.2591 20.4982C21.2591 20.8728 21.203 21.1873 21.0908 21.4417C20.9786 21.6961 20.8204 21.8884 20.616 22.0186C20.4137 22.1488 20.1743 22.2139 19.8979 22.2139C19.7236 22.2139 19.5704 22.1909 19.4381 22.1448C19.3059 22.0988 19.1928 22.0367 19.0986 21.9585C19.0045 21.8804 18.9263 21.7953 18.8642 21.7031H18.8282C18.8342 21.7812 18.8412 21.8754 18.8492 21.9856C18.8592 22.0958 18.8642 22.1919 18.8642 22.274V23.6262H18.3624V18.8606H18.7741L18.8402 19.3474H18.8642C18.9283 19.2472 19.0065 19.156 19.0986 19.0739C19.1908 18.9898 19.3029 18.9237 19.4351 18.8756C19.5694 18.8255 19.7276 18.8005 19.9099 18.8005ZM19.8228 19.2212C19.5944 19.2212 19.4101 19.2652 19.2699 19.3534C19.1317 19.4415 19.0305 19.5737 18.9664 19.75C18.9023 19.9243 18.8682 20.1436 18.8642 20.4081V20.5042C18.8642 20.7827 18.8943 21.018 18.9544 21.2103C19.0165 21.4026 19.1176 21.5489 19.2579 21.649C19.4001 21.7492 19.5904 21.7993 19.8288 21.7993C20.0331 21.7993 20.2034 21.7442 20.3396 21.634C20.4758 21.5238 20.577 21.3706 20.6431 21.1743C20.7112 20.976 20.7452 20.7486 20.7452 20.4922C20.7452 20.1036 20.6691 19.7951 20.5169 19.5667C20.3666 19.3363 20.1353 19.2212 19.8228 19.2212Z" fill="#FDFDFD" />
    <path d="M17.5 20.5012C17.5 20.7716 17.465 21.013 17.3948 21.2254C17.3247 21.4377 17.2236 21.617 17.0914 21.7632C16.9591 21.9095 16.7989 22.0216 16.6106 22.0998C16.4243 22.1759 16.2129 22.2139 15.9766 22.2139C15.7562 22.2139 15.5539 22.1759 15.3696 22.0998C15.1873 22.0216 15.0291 21.9095 14.8948 21.7632C14.7626 21.617 14.6595 21.4377 14.5853 21.2254C14.5132 21.013 14.4772 20.7716 14.4772 20.5012C14.4772 20.1406 14.5383 19.8341 14.6605 19.5817C14.7827 19.3273 14.9569 19.134 15.1833 19.0018C15.4117 18.8676 15.6831 18.8005 15.9976 18.8005C16.2981 18.8005 16.5605 18.8676 16.7849 19.0018C17.0112 19.136 17.1865 19.3303 17.3107 19.5847C17.4369 19.8371 17.5 20.1426 17.5 20.5012ZM14.994 20.5012C14.994 20.7656 15.0291 20.995 15.0992 21.1893C15.1693 21.3836 15.2775 21.5339 15.4237 21.64C15.5699 21.7462 15.7582 21.7993 15.9886 21.7993C16.217 21.7993 16.4043 21.7462 16.5505 21.64C16.6987 21.5339 16.8079 21.3836 16.878 21.1893C16.9481 20.995 16.9832 20.7656 16.9832 20.5012C16.9832 20.2388 16.9481 20.0124 16.878 19.8221C16.8079 19.6298 16.6997 19.4816 16.5535 19.3774C16.4073 19.2732 16.218 19.2212 15.9856 19.2212C15.643 19.2212 15.3916 19.3343 15.2314 19.5607C15.0731 19.7871 14.994 20.1006 14.994 20.5012Z" fill="#FDFDFD" />
    <path d="M13.6028 18.8606V22.1538H13.101V19.2903H11.3462V22.1538H10.8444V18.8606H13.6028Z" fill="#FDFDFD" />
    <path d="M8.58179 20.7236V20.2788H10.0722V20.7236H8.58179Z" fill="#FDFDFD" />
    <path d="M6.32508 17.7608C6.68566 17.7608 6.98314 17.8059 7.21751 17.896C7.45389 17.9842 7.63017 18.1194 7.74636 18.3017C7.86254 18.484 7.92064 18.7163 7.92064 18.9988C7.92064 19.2312 7.87857 19.4255 7.79443 19.5817C7.7103 19.736 7.60012 19.8612 7.4639 19.9573C7.32769 20.0535 7.18245 20.1276 7.02821 20.1797L8.23314 22.1538H7.63818L6.56246 20.3209H5.649V22.1538H5.13818V17.7608H6.32508ZM6.29503 18.2025H5.649V19.8882H6.34612C6.70469 19.8882 6.96811 19.8151 7.13638 19.6689C7.30665 19.5226 7.39179 19.3073 7.39179 19.0228C7.39179 18.7244 7.30165 18.513 7.12136 18.3888C6.94307 18.2646 6.66763 18.2025 6.29503 18.2025Z" fill="#FDFDFD" />
    <path d="M3.93028 22.1538H3.41946V20.0835H1.11177V22.1538H0.600952V17.7608H1.11177V19.6328H3.41946V17.7608H3.93028V22.1538Z" fill="#FDFDFD" />
  </g>
  <defs>
    <clipPath id="clip0_3_34">
      <rect width="102.154" height="24" fill="white" />
    </clipPath>
  </defs>
</svg>