<svg width="34" height="14" viewBox="0 0 34 14" fill="none" xmlns="http://www.w3.org/2000/svg">
  <path fill-rule="evenodd" clip-rule="evenodd" d="M20.1637 5.38733L20.2137 6.17031C20.22 6.21383 20.22 6.24488 20.22 6.30702C20.22 6.36917 20.2325 6.37537 20.2325 6.43751C20.2325 6.6115 20.2638 6.7917 20.2638 6.9719L20.2825 7.22669C20.295 7.31989 20.295 7.40689 20.295 7.50011C20.295 7.57468 20.3137 7.68031 20.32 7.75488L20.3388 8.14016C20.3388 8.20227 20.3512 8.21473 20.3512 8.27064L20.3825 8.80503C20.3825 8.86717 20.395 8.87337 20.395 8.93551C20.395 9.09085 20.4138 9.16545 20.4138 9.33319L20.4388 9.60039L19.3259 9.60036L19.5322 8.54401C19.5635 8.36381 19.6073 8.19602 19.6385 8.01579C19.651 7.92882 19.6698 7.84802 19.6885 7.7548C19.7073 7.6616 19.726 7.58083 19.7385 7.4876L19.9449 6.43125C19.9823 6.25728 20.0074 6.07709 20.0511 5.90306L20.1262 5.51156C20.1324 5.4867 20.1324 5.4805 20.1387 5.44322L20.1574 5.37487L20.1637 5.38727L20.1637 5.38733ZM26.1909 7.23909H25.1093C25.0655 7.23909 25.0843 7.20181 25.0843 7.15209L25.2093 5.18228C25.2093 5.12014 25.2218 5.11393 25.2218 5.05799L25.2593 4.39932C25.2655 4.35581 25.2655 4.31855 25.2655 4.26881C25.2655 4.15698 25.2968 3.87733 25.2968 3.74685C25.2968 3.68474 25.3093 3.67228 25.3093 3.61637L25.3218 3.34917C25.328 3.2746 25.3405 3.16275 25.3405 3.08198H26.4972C26.8161 3.08198 26.7223 3.31811 26.7223 3.56668L26.5785 5.79126C26.5785 5.84098 26.5847 5.88446 26.5785 5.9342C26.5472 6.21383 26.5472 6.57425 26.516 6.84764C26.4972 7.01544 26.566 7.23292 26.1909 7.23292V7.23915L26.1909 7.23909ZM18.6256 13.0305C18.6506 12.9124 18.6756 12.7819 18.7007 12.6639C18.7257 12.5334 18.7507 12.4153 18.7757 12.2848C18.8007 12.1605 18.8257 12.0363 18.8507 11.9058C18.8758 11.7815 18.9008 11.651 18.932 11.5329L20.5826 11.5329C20.5826 11.6385 20.6139 11.8063 20.6139 11.912C20.6201 12.0984 20.6514 12.291 20.6576 12.4774C20.6639 12.6017 20.6889 12.7322 20.6889 12.8627C20.6889 12.9186 20.6827 13.0305 20.7327 13.0305H24.6779C24.7279 13.0305 24.7092 12.9435 24.7217 12.8192C24.7341 12.6639 24.7341 12.4961 24.7529 12.3407C24.7592 12.3035 24.7529 12.26 24.7529 12.2227L24.7967 11.6199C24.8092 11.5081 24.803 11.3652 24.8217 11.2533C24.8405 11.1352 24.8342 11.011 24.8467 10.8867C24.853 10.8494 24.8467 10.8121 24.853 10.7686L24.9155 9.80541C24.9155 9.7557 24.9155 9.72464 24.9217 9.67493C24.9405 9.53822 24.953 9.32076 24.953 9.18405H25.2406C25.2844 9.18405 25.2781 9.23999 25.2906 9.27725L25.6095 10.607C25.647 10.7624 25.6908 10.9426 25.7283 11.0979C25.8534 11.5826 25.9721 12.0611 26.0784 12.552L26.166 12.9186C26.1784 12.9621 26.1722 13.0242 26.216 13.0242H28.6981C28.6981 12.9683 28.6544 12.844 28.6356 12.7819L28.3793 11.8312C28.2792 11.4273 28.1542 11.0296 28.0542 10.6257C27.9541 10.228 27.8291 9.82407 27.7353 9.42639C27.7165 9.34562 27.6853 9.26482 27.6665 9.18405C27.9729 9.18405 28.2042 9.10328 28.373 8.96657C28.6544 8.74286 28.8294 8.4011 28.8232 8.02205L28.9608 5.84718C28.9732 5.77883 28.967 5.69184 28.9795 5.6297L29.0045 5.18848C29.0045 5.13876 29.0108 5.12636 29.017 5.08905C29.0233 5.04557 29.017 5.01448 29.0233 4.971C29.042 4.86537 29.0357 4.75351 29.042 4.64786L29.0733 4.2129C29.0795 4.10724 29.0795 3.98296 29.092 3.87733L29.1295 3.21866H29.8735C29.8735 3.42371 29.8423 3.62257 29.8423 3.82762L29.7985 4.43658C29.786 4.54221 29.7922 4.64163 29.786 4.74726L29.7422 5.35622C29.7422 5.46807 29.736 5.5737 29.7235 5.6669L29.5734 8.11519C29.5609 8.20219 29.5609 8.33267 29.5547 8.4197C29.5547 8.47564 29.5422 8.49427 29.5422 8.56264L29.3421 11.7939C29.3359 11.8871 29.3171 11.9989 29.3171 12.0922L29.2796 12.7074C29.2671 12.8006 29.2608 12.9124 29.2608 13.018H31.7118C31.7618 13.018 31.7431 12.9497 31.7431 12.8937C31.7431 12.7943 31.7681 12.6949 31.7681 12.5831L31.8181 11.8125C31.8306 11.7318 31.8369 11.6013 31.8369 11.508C31.8369 11.4521 31.8493 11.4273 31.8493 11.3527C31.8493 11.2781 31.8618 11.2595 31.8618 11.1974C31.8618 11.1166 31.8681 10.9737 31.8806 10.8928C31.8993 10.7872 31.8868 10.6816 31.8993 10.5759C31.9056 10.4827 31.9181 10.3771 31.9181 10.2777L31.9431 9.96701C31.9431 9.89864 31.9494 9.87378 31.9556 9.82407L31.9806 9.34559C31.9931 9.1654 32.0181 8.91683 32.0244 8.73663L32.0556 8.11522C32.0619 8.02202 32.0807 7.91639 32.0807 7.81697C32.0807 7.71131 32.0994 7.60569 32.1057 7.50626C32.1119 7.28878 32.1307 7.10238 32.1369 6.88487L32.3558 3.51068C32.362 3.45474 32.362 3.41126 32.362 3.34912C32.362 3.29317 32.3745 3.26835 32.3745 3.19378H34.0001C33.9563 3.01358 33.9251 2.82715 33.8813 2.63453L33.7125 1.79563C33.6937 1.69621 33.675 1.60921 33.6562 1.50981C33.6374 1.42281 33.6187 1.32339 33.5999 1.23639C33.5812 1.13696 33.5499 1.04373 33.5499 0.944336H29.0482C29.042 0.987849 29.0295 1.01893 29.017 1.05619C28.9794 1.16182 28.9294 1.2799 28.9044 1.38553H28.8794C28.8669 1.34201 28.8231 1.31093 28.7919 1.27987C28.7231 1.21153 28.6418 1.16805 28.5605 1.12453C28.3542 1.00025 28.0291 0.944336 27.754 0.944336H23.0397C23.0397 1.11213 23.0147 1.24262 23.0147 1.39796C23.0147 1.4477 23.0085 1.46632 23.0085 1.49738C23.0022 1.54089 23.0085 1.57815 23.0022 1.61546C22.9959 1.67758 22.9897 1.77703 22.9834 1.83917C22.9772 1.87643 22.9834 1.91374 22.9834 1.951L22.9459 2.5227C22.9272 2.65941 22.9209 3.03226 22.9084 3.20623L22.8897 3.5418C22.8897 3.65985 22.8647 3.75928 22.8647 3.8711L22.7959 4.8902C22.7897 5.07662 22.7584 5.26925 22.7646 5.45567C22.7646 5.6421 22.7396 5.83472 22.7334 6.02115L22.6458 7.36335C22.6458 7.63054 22.6021 7.90396 22.6021 8.17116H22.5896C22.5896 7.94745 22.5083 7.52489 22.4895 7.27635L22.4708 7.12721C22.4645 7.0651 22.4645 7.03401 22.4583 6.9781L22.2457 5.19471C22.1894 4.8032 22.1644 4.39309 22.1019 4.00782L22.0644 3.70956L21.7455 1.02513C21.7331 0.913279 21.7205 0.950564 21.4829 0.950564L19.132 0.950536L18.7069 2.69664C18.3755 4.00779 18.0692 5.32513 17.7378 6.64251C17.7003 6.78545 17.6627 6.93456 17.6315 7.0775L16.9375 9.91727L16.8812 10.1409L16.2372 12.7694C16.2309 12.7881 16.1809 12.9869 16.1809 12.9869C16.1872 13.018 16.1809 13.0056 16.2184 13.0056H18.6256V13.0304L18.6256 13.0305Z" fill="currentColor" />
  <path fill-rule="evenodd" clip-rule="evenodd" d="M0.400133 11.7444C0.406399 11.6885 0.418876 11.6326 0.431409 11.5828L0.468896 11.3778C0.475163 11.3467 0.475163 11.3094 0.487668 11.2721C0.493906 11.2411 0.500145 11.2162 0.506411 11.1914C0.512678 11.1354 0.525155 11.0795 0.531421 11.0174C0.537688 10.9615 0.556432 10.9055 0.562698 10.8621C0.562698 10.8248 0.618984 10.5079 0.631462 10.483C0.631462 10.4333 0.706519 9.96728 0.718997 9.94239C0.725263 9.85542 0.756484 9.75597 0.76275 9.669C0.769017 9.56954 0.806532 9.43906 0.819037 9.33966C0.825303 9.25266 0.850313 9.14081 0.862818 9.05381C0.869085 9.0041 0.875296 8.96684 0.887828 8.9109C0.894095 8.87362 0.9066 8.8363 0.9066 8.78662C0.925343 8.72447 0.93161 8.60642 0.950353 8.55668C0.95662 8.46348 0.98163 8.37026 0.994135 8.27706C1.00037 8.23977 1.00661 8.21492 1.01288 8.17143C1.01914 8.14034 1.01288 8.11549 1.03165 8.10306C1.03165 8.02229 1.0629 7.94149 1.0629 7.87315C1.08167 7.76752 1.10668 7.65567 1.11918 7.55001C1.13169 7.47544 1.14419 7.4071 1.1567 7.33253C1.16294 7.30768 1.16918 7.25176 1.17544 7.22691C1.18171 7.18965 1.18795 7.17719 1.18795 7.13994C1.19419 7.08399 1.20669 7.02808 1.2192 6.97214C1.22546 6.92863 1.24421 6.86028 1.24421 6.82303C1.25671 6.76089 1.26925 6.69252 1.27548 6.63658C1.28175 6.51229 1.33177 6.38804 1.33177 6.25755C1.34425 6.22647 1.36305 6.12084 1.36305 6.08976C1.37552 6.02762 1.38806 5.95927 1.39432 5.90333L1.45061 5.56157C1.45685 5.53671 1.45685 5.53048 1.45685 5.50563C1.45685 5.4932 1.45685 5.4932 1.46311 5.48077L1.46938 5.46834C1.46938 5.37514 1.50063 5.26329 1.51313 5.17629C1.51313 5.13903 1.54441 4.95881 1.55692 4.94015C1.55692 4.85938 1.58193 4.82833 1.58193 4.75373C1.58819 4.72264 1.6132 4.61082 1.6132 4.57353C1.6132 4.53005 1.62568 4.51142 1.63195 4.46791L1.68197 4.20691C1.68197 4.12614 1.69447 4.08883 1.707 4.01426C1.71324 3.9894 1.73201 3.87132 1.73825 3.84029C1.74452 3.78435 1.75702 3.74706 1.76326 3.68495C1.76953 3.64144 1.81955 3.29344 1.83832 3.27482C1.83832 3.21888 1.84456 3.20647 1.85706 3.15676C1.86333 3.11325 1.88834 2.89577 1.90711 2.87711C1.90711 2.80877 1.91959 2.75906 1.93212 2.69069C1.9446 2.62854 1.9446 2.58506 1.96337 2.53535L2.03216 2.14387C2.03216 2.09413 2.08845 1.75859 2.10093 1.73996C2.10093 1.68402 2.15095 1.38577 2.16969 1.34848C2.16969 1.30497 2.20097 1.11235 2.21347 1.08746C2.21347 1.03155 2.23221 0.93215 2.24475 0.876209C2.24475 0.838924 2.32602 0.379105 2.33225 0.35422C2.33225 0.26725 2.36353 0.161595 2.37604 0.0745974C2.37604 0.0248842 2.38227 0.0373125 2.38851 0H15.9873L15.9247 0.410106C15.9123 0.472248 15.931 0.434963 15.8997 0.45982L15.906 0.490904C15.8872 0.584103 15.8372 0.994237 15.8059 1.03772C15.8122 1.09366 15.7559 1.46648 15.7309 1.50377C15.7372 1.56588 15.6809 1.87662 15.6621 1.95116L15.6246 2.16244L15.5058 2.80871C15.5121 2.8522 15.4558 3.19396 15.4371 3.22505C15.4433 3.31825 15.4058 3.46119 15.387 3.56061L15.3308 3.88992C15.3245 3.90235 15.3245 3.90235 15.3245 3.9148L15.3182 3.93343C15.3245 3.98315 15.312 4.10123 15.2807 4.13849C15.287 4.20683 15.2557 4.33734 15.2432 4.40568C15.2307 4.48025 15.1807 4.84064 15.1557 4.8717C15.162 4.92764 15.1182 5.22589 15.0869 5.26321C15.0932 5.29426 15.0619 5.54903 15.0306 5.58632C15.0431 5.66709 14.9681 5.97159 14.9556 6.08342C14.9369 6.15179 14.9306 6.22636 14.9181 6.2947L14.8743 6.51218C14.8806 6.54327 14.8431 6.86017 14.8056 6.90986C14.8181 6.9596 14.7993 7.07766 14.7681 7.11494C14.7743 7.17086 14.7556 7.233 14.7493 7.29514L14.6806 7.6369C14.6868 7.68039 14.668 7.82333 14.643 7.85438C14.6493 7.9165 14.618 8.13401 14.5868 8.17749C14.593 8.23963 14.5743 8.308 14.5617 8.37014C14.5555 8.41366 14.543 8.52549 14.518 8.55657C14.5242 8.59385 14.518 8.62494 14.5117 8.66222C14.5117 8.68085 14.5055 8.69948 14.4992 8.71816C14.493 8.75542 14.4992 8.73679 14.4805 8.76165C14.4867 8.80516 14.4805 8.82999 14.4742 8.86728C14.4742 8.87971 14.468 8.90456 14.468 8.91702C14.4617 8.95428 14.468 8.93565 14.4492 8.9605L14.4117 9.25255C14.3867 9.32712 14.4367 9.19041 14.4054 9.27118C14.4054 9.27118 14.3992 9.28361 14.3992 9.27741C14.3992 9.27741 14.3992 9.28364 14.3929 9.28364C14.3992 9.3209 14.3929 9.35198 14.3867 9.38927L14.3617 9.48246C14.3741 9.5322 14.3304 9.79317 14.3054 9.83046C14.3116 9.8926 14.2679 10.1846 14.2366 10.222C14.2429 10.2841 14.2116 10.514 14.1803 10.5513C14.1866 10.601 14.1741 10.7128 14.149 10.7501C14.1553 10.8061 14.1366 10.8744 14.124 10.9365L14.0803 11.21C14.074 11.2535 14.049 11.4275 14.0302 11.4647C14.0427 11.5269 14.0178 11.6077 14.0052 11.676C13.9928 11.7382 13.9927 11.8252 13.9615 11.8687C13.9677 11.9246 13.949 11.9868 13.9427 12.0427C13.9364 12.0924 13.9302 12.1669 13.9052 12.198C13.9177 12.2726 13.8739 12.4279 13.8614 12.5087C13.8489 12.5895 13.849 12.7386 13.8051 12.7945C13.8114 12.8567 13.7801 13.0866 13.7489 13.1238C13.7551 13.1798 13.7051 13.4905 13.6801 13.5215C13.6864 13.5961 13.6426 13.8011 13.6301 13.8881C13.6176 13.9814 13.6363 13.9938 13.5425 14H1.78816V13.9938C1.41301 13.9938 1.03789 13.9938 0.669004 14H0C0.00623864 13.9503 0.0187437 13.8943 0.0312764 13.8384L0.0812965 13.5153C0.0875351 13.4904 0.10004 13.3786 0.112573 13.3662C0.112573 13.3289 0.156327 13.043 0.168859 13.0244C0.168859 12.9809 0.181337 12.9188 0.187603 12.8815C0.325158 12.0861 0.218879 12.7759 0.381445 11.7257L0.400188 11.7443L0.400133 11.7444ZM3.25117 12.8256H5.36446C6.02096 9.613 6.89628 4.49271 7.47775 1.13098L5.38326 1.13095C5.40827 1.87039 3.35126 12.2725 3.25746 12.8319L3.25119 12.8256H3.25117ZM8.54059 9.42658C8.52185 9.47009 8.51558 9.55089 8.50934 9.60677C8.50308 9.66272 8.47807 9.73108 8.47807 9.79323C8.47807 9.83048 8.4593 9.8802 8.45306 9.91751C8.44679 9.96099 8.43429 10.0169 8.42805 10.0666C8.41554 10.0853 8.38426 10.2779 8.38426 10.3214C8.36552 10.3463 8.3155 10.6632 8.3155 10.7191L8.24674 11.0671C8.23423 11.1603 8.20296 11.2349 8.21546 11.3529C8.23421 11.5393 8.39677 11.6574 8.59682 11.6263C8.74688 11.6014 8.73438 11.589 8.83442 11.5331C8.87193 11.471 9.02202 11.3467 9.00949 11.2473C9.0345 11.21 9.07825 10.9241 9.08452 10.8807C9.10329 10.7999 9.15328 10.5513 9.14704 10.4892L9.15328 10.4705C9.15328 10.4643 9.20333 10.3214 9.1908 10.2344L9.20954 10.1722C9.21581 10.1536 9.21581 10.1288 9.22205 10.1039C9.22828 10.0604 9.24706 10.0107 9.23452 9.96719C9.24079 9.95479 9.24079 9.96719 9.247 9.94234L9.25951 9.8864C9.26574 9.84289 9.26574 9.84289 9.26574 9.80563C9.29702 9.76837 9.30953 9.60057 9.32203 9.53843C9.33454 9.45766 9.37832 9.28367 9.37205 9.21532L9.41583 9.02887C9.42831 8.96053 9.44711 8.89216 9.44084 8.83005C9.45961 8.80519 9.45961 8.76791 9.45332 8.73062C9.50961 8.64362 9.42207 8.30809 9.39082 8.21486C9.35955 8.12789 9.19698 7.86687 9.14699 7.84201C9.13448 7.81095 8.99695 7.62453 8.96568 7.60587C8.95317 7.56862 8.96568 7.59967 8.94067 7.56862L8.7656 7.35113L8.72185 7.28279C8.66556 7.21442 8.40298 6.87266 8.37794 6.86643C8.36547 6.82294 8.25916 6.69863 8.22167 6.65515C8.1904 6.61789 8.08412 6.46872 8.05908 6.45632C8.0466 6.43147 7.89651 6.22019 7.8715 6.20776C7.84023 6.13319 7.784 6.06482 7.74022 5.99028C7.72147 5.95919 7.69643 5.91571 7.67769 5.87219C7.66521 5.84114 7.64644 5.779 7.62767 5.75414C7.60266 5.6112 7.59018 5.54286 7.59639 5.38752L7.65268 4.98984L7.74648 4.46785C7.76523 4.38088 7.81525 4.15717 7.80277 4.0826C7.83402 4.03909 7.85903 3.84026 7.85903 3.77809C7.88406 3.74701 7.93408 3.4301 7.92782 3.38662C7.97157 3.31825 7.99032 3.0262 8.02159 2.92057C8.03407 2.8336 8.08412 2.64095 8.07788 2.5664C8.09036 2.554 8.08414 2.5664 8.09036 2.54155L8.11537 2.43592C8.12787 2.39241 8.14664 2.34269 8.1404 2.29921C8.15915 2.27435 8.15288 2.28678 8.16541 2.24947C8.17165 2.23084 8.17789 2.21841 8.18416 2.19975C8.19663 2.1625 8.20917 2.13764 8.20917 2.09413C8.24044 2.06304 8.27796 1.95742 8.2967 1.9077L8.39674 1.72128C8.42802 1.70262 8.45927 1.65291 8.48428 1.62185C8.51555 1.57834 8.54056 1.55971 8.57805 1.52863C8.60933 1.50377 8.78437 1.38571 8.79064 1.37329C8.84692 1.35466 8.90942 1.31117 8.97195 1.28632C9.03447 1.26143 9.09076 1.23657 9.15952 1.21795C9.30334 1.17446 9.42836 1.15583 9.58466 1.14338C10.0286 1.13098 10.485 1.14338 10.9352 1.14338C11.3666 1.14338 11.773 1.18063 12.0043 1.4292C12.0543 1.47891 12.1606 1.62185 12.1919 1.70885C12.2169 1.78342 12.2482 1.83933 12.2669 1.92013C12.2857 2.0071 12.2919 2.0879 12.2919 2.19353C12.2919 2.23081 12.2857 2.29918 12.2795 2.34887C12.2732 2.39858 12.2607 2.46072 12.2607 2.51666C12.2544 2.5726 12.2357 2.64095 12.2294 2.69686C12.2232 2.759 12.2107 2.846 12.1919 2.89571C12.1919 2.9392 12.1732 3.00757 12.1669 3.05728C12.1544 3.11939 12.1419 3.18156 12.1356 3.23748C12.1294 3.25611 12.1044 3.39904 12.1044 3.4239C12.0981 3.46741 12.0856 3.5171 12.0731 3.57301C12.0606 3.63515 12.0481 3.6911 12.0481 3.75321C12.0293 3.80915 12.0231 3.88372 12.0106 3.95206C11.9981 4.03283 11.9856 4.095 11.9731 4.16954C11.9731 4.21306 11.9481 4.31866 11.9418 4.35597C11.9355 4.39325 11.9355 4.40568 11.9293 4.44919C11.9231 4.48025 11.9106 4.51754 11.9106 4.56102C11.9043 4.60453 11.8918 4.66045 11.8793 4.71016C11.8668 4.7661 11.8543 4.82822 11.8543 4.87793C11.848 4.91521 11.8355 4.96493 11.823 5.01464L10.1537 5.02087C10.1537 4.90281 10.2287 4.69153 10.2224 4.57965C10.2537 4.54239 10.2849 4.30623 10.2787 4.25034C10.2912 4.23169 10.285 4.25034 10.2912 4.21926L10.3412 3.88992C10.3787 3.84641 10.41 3.49224 10.435 3.41144C10.4475 3.32445 10.485 3.19396 10.4788 3.11317C10.5038 3.07591 10.5038 2.98268 10.5225 2.9392L10.5288 2.87706L10.5475 2.79629C10.5976 2.55395 10.5038 2.34267 10.2475 2.34267C10.0411 2.34267 9.82852 2.46695 9.76603 2.64095C9.75355 2.67203 9.75355 2.69066 9.74102 2.71552C9.72851 2.77766 9.70974 2.86465 9.70974 2.9268C9.69726 2.98274 9.69097 3.01999 9.67846 3.08214C9.66599 3.14428 9.65345 3.19399 9.65345 3.26233L9.62844 3.35553L9.60967 3.46739C9.5972 3.54816 9.57842 3.62273 9.57219 3.69732C9.55344 3.70972 9.55971 3.74704 9.55344 3.77809C9.54718 3.82158 9.54094 3.83403 9.53467 3.87129C9.5284 3.92723 9.50339 4.008 9.50339 4.06394C9.49092 4.11366 9.48465 4.15714 9.47212 4.21928C9.45964 4.2814 9.44711 4.33114 9.44711 4.39948C9.42836 4.42434 9.40335 4.60453 9.39709 4.66668C9.39082 4.71016 9.37834 4.88416 9.39082 4.92767C9.40333 4.96493 9.37834 4.94007 9.40959 4.95876C9.37832 5.04573 9.49086 5.26323 9.54088 5.35023C9.57216 5.39995 9.53464 5.36886 9.58466 5.39375C9.5784 5.4248 9.5784 5.39995 9.58466 5.4248C9.58466 5.43723 9.59714 5.44966 9.60341 5.46209L9.90353 5.86599C9.92854 5.88462 9.88476 5.86599 9.92854 5.88462C9.92854 5.92188 10.0786 6.0959 10.1098 6.12076L10.3349 6.38175C10.3349 6.38798 10.3224 6.38798 10.3537 6.43147L10.6351 6.77946L10.7914 6.97211C10.8351 7.02805 10.8164 7.01563 10.8539 7.03425C10.8601 7.07151 10.9477 7.17717 10.9727 7.22068C11.0227 7.29525 11.0664 7.40087 11.104 7.4195C11.0915 7.45679 11.0977 7.43193 11.1164 7.47544C11.1289 7.4941 11.1289 7.5003 11.1414 7.53139L11.2227 7.7613C11.2477 7.85452 11.229 7.86072 11.2602 7.88561C11.2289 7.96018 11.2477 8.07203 11.2477 8.15277C11.2415 8.20251 11.2352 8.21492 11.2352 8.27708C11.2228 8.29571 11.179 8.60019 11.179 8.64991C11.1602 8.66856 11.179 8.6437 11.1665 8.67479C11.1665 8.68099 11.1602 8.71828 11.1602 8.71828C11.154 8.76179 11.1477 8.78662 11.1477 8.8239C11.1353 8.84876 11.0914 9.10355 11.0914 9.14081C11.079 9.19055 11.0664 9.26512 11.0602 9.32726C11.0539 9.3956 11.0289 9.45775 11.0289 9.53852C11.0164 9.55094 11.0164 9.58203 11.0102 9.60688C11.0039 9.64414 11.0039 9.66283 10.9977 9.69386C10.9852 9.756 10.9789 9.82437 10.9664 9.88031C10.9664 9.94242 10.9351 10.0294 10.9351 10.104C10.9226 10.1226 10.9038 10.2469 10.9038 10.2842C10.8914 10.3712 10.8664 10.4582 10.8601 10.5514C10.8476 10.5825 10.8163 10.7689 10.8163 10.8186C10.7976 10.831 10.7976 10.8807 10.7976 10.9056C10.7913 10.9491 10.7851 10.9677 10.7788 11.0112C10.7663 11.0858 10.7475 11.1665 10.7413 11.2411C10.7288 11.2722 10.7163 11.3405 10.71 11.3778C10.6976 11.4213 10.6788 11.4897 10.6725 11.5394L10.5662 11.8377C10.51 11.9744 10.4412 12.0551 10.4162 12.1173C10.4037 12.1235 10.3287 12.2291 10.3099 12.254C10.2849 12.2851 10.2787 12.2913 10.2536 12.3223L10.1849 12.3969C10.1349 12.4653 9.93478 12.6082 9.841 12.6455C9.79095 12.6641 9.7472 12.6766 9.69718 12.7076C9.64089 12.7139 9.42207 12.7884 9.22202 12.7946L8.66556 12.807C8.55925 12.807 8.49049 12.8194 8.39672 12.8194L7.67145 12.8195C7.60269 12.8195 7.59018 12.8071 7.52763 12.8071C7.49638 12.8071 7.40885 12.7884 7.37136 12.7822C7.34632 12.776 7.32758 12.776 7.2963 12.7698C7.26502 12.7636 7.25255 12.7512 7.21503 12.7512C6.99621 12.7014 6.93368 12.6269 6.82114 12.5461C6.80237 12.5337 6.81487 12.5399 6.80237 12.5337C6.78362 12.5026 6.80237 12.5275 6.77736 12.4964C6.77109 12.484 6.76488 12.484 6.75861 12.4716L6.54603 12.0739C6.53976 12.0179 6.52102 11.9683 6.51475 11.9123C6.50849 11.8502 6.52102 11.7943 6.50849 11.7384C6.52726 11.7011 6.55227 11.4152 6.55853 11.3468C6.57101 11.2474 6.62103 11.0424 6.61482 10.9616C6.63983 10.9243 6.65857 10.7938 6.65231 10.7503L6.65857 10.7317C6.65857 10.7317 6.71486 10.5266 6.70233 10.4458C6.72734 10.4148 6.78986 10.0482 6.7836 9.99222L6.80861 9.89902C6.81487 9.85551 6.82738 9.83068 6.81487 9.79339L6.82735 9.75611C6.82735 9.74991 6.83362 9.72502 6.83362 9.71885C6.83988 9.69399 6.83988 9.66914 6.84609 9.64425C6.85236 9.59454 6.87113 9.53863 6.86486 9.48891C6.89614 9.44543 6.92736 9.24037 6.92115 9.17823C6.94616 9.14097 6.99618 8.79295 7.00866 8.71838C7.04617 8.68733 7.79647 8.70598 7.84023 8.70598H8.69057L8.62807 9.07261L8.60303 9.21554C8.59056 9.28389 8.56555 9.35223 8.56555 9.4268H8.54051L8.54059 9.42658Z" fill="currentColor" />
</svg>