<svg width="16" height="16" viewBox="0 0 16 16" fill="none" xmlns="http://www.w3.org/2000/svg">
  <path d="M7.33398 1.33334H6.00065C2.66732 1.33334 1.33398 2.66668 1.33398 6.00001V10C1.33398 13.3333 2.66732 14.6667 6.00065 14.6667H10.0007C13.334 14.6667 14.6673 13.3333 14.6673 10V8.66668" stroke="currentColor" stroke-linecap="round" stroke-linejoin="round" />
  <path d="M10.6933 2.01332L5.43992 7.26665C5.23992 7.46665 5.03992 7.85999 4.99992 8.14665L4.71325 10.1533C4.60659 10.88 5.11992 11.3867 5.84659 11.2867L7.85325 11C8.13325 10.96 8.52659 10.76 8.73325 10.56L13.9866 5.30665C14.8933 4.39999 15.3199 3.34665 13.9866 2.01332C12.6533 0.679985 11.5999 1.10665 10.6933 2.01332Z" stroke="currentColor" stroke-miterlimit="10" stroke-linecap="round" stroke-linejoin="round" />
  <path d="M9.93945 2.76666C10.3861 4.36 11.6328 5.60666 13.2328 6.06" stroke="currentColor" stroke-miterlimit="10" stroke-linecap="round" stroke-linejoin="round" />
</svg>